<?xml version="1.0" encoding="UTF-8" standalone="no"?>
<svg
   width="226"
   height="42"
   viewBox="0 0 226 42"
   fill="none"
   version="1.1"
   id="svg21"
   sodipodi:docname="custom-3.svg"
   inkscape:version="1.2.1 (9c6d41e410, 2022-07-14)"
   xmlns:inkscape="http://www.inkscape.org/namespaces/inkscape"
   xmlns:sodipodi="http://sodipodi.sourceforge.net/DTD/sodipodi-0.dtd"
   xmlns="http://www.w3.org/2000/svg"
   xmlns:svg="http://www.w3.org/2000/svg">
  <sodipodi:namedview
     id="namedview23"
     pagecolor="#ffffff"
     bordercolor="#000000"
     borderopacity="0.25"
     inkscape:showpageshadow="2"
     inkscape:pageopacity="0.0"
     inkscape:pagecheckerboard="0"
     inkscape:deskcolor="#d1d1d1"
     showgrid="false"
     inkscape:zoom="5.3539823"
     inkscape:cx="113"
     inkscape:cy="20.919008"
     inkscape:window-width="1920"
     inkscape:window-height="1017"
     inkscape:window-x="1912"
     inkscape:window-y="-8"
     inkscape:window-maximized="1"
     inkscape:current-layer="svg21" />
  <defs
     id="defs19">
    <linearGradient
       id="paint0_linear_8687_2950"
       x1="20.303"
       y1="23.0303"
       x2="29.0909"
       y2="25.7576"
       gradientUnits="userSpaceOnUse">
      <stop
         stop-color="#18175A"
         stop-opacity="0.42"
         id="stop14" />
      <stop
         offset="0.911458"
         stop-color="#65719B"
         stop-opacity="0"
         id="stop16" />
    </linearGradient>
    <clipPath
       id="clip-path-5">
      <path
         class="cls-1"
         d="m 255.22,224.9 c -28,0.1 -30.05,2.16 -30.13,30.06 q -0.36,118.85 0,237.68 c 0,7.4 -2.11,15.62 6.27,22.31 h 278.12 c 7.42,-5.1 6.5,-12.05 6.51,-18.52 0.06,-81.42 0.24,-162.85 -0.08,-244.28 -0.1,-24.72 -2.88,-27.16 -29.61,-27.25 q -57.72,-0.19 -115.44,-0.19 -57.72,0 -115.64,0.19"
         id="path4-2" />
    </clipPath>
    <linearGradient
       id="linear-gradient-4"
       y1="740.76001"
       x2="1"
       y2="740.76001"
       gradientTransform="matrix(0,-1431.88,-1431.88,0,1061044.4,1403.09)"
       gradientUnits="userSpaceOnUse">
      <stop
         offset="0"
         stop-color="#fff33b"
         id="stop7-1" />
      <stop
         offset="0.04"
         stop-color="#fee72e"
         id="stop9-6" />
      <stop
         offset="0.12"
         stop-color="#fed51b"
         id="stop11-6" />
      <stop
         offset="0.2"
         stop-color="#fdca10"
         id="stop13-7" />
      <stop
         offset="0.28"
         stop-color="#fdc70c"
         id="stop15-8" />
      <stop
         offset="0.67"
         stop-color="#f3903f"
         id="stop17-1" />
      <stop
         offset="0.89"
         stop-color="#ed683c"
         id="stop19-6" />
      <stop
         offset="1"
         stop-color="#e93e3a"
         id="stop21-1" />
    </linearGradient>
    <clipPath
       id="clip-path-2-4">
      <rect
         class="cls-1"
         width="740.48999"
         height="740.76001"
         id="rect24-7"
         x="0"
         y="0" />
    </clipPath>
  </defs>
  <g
     id="g4160"
     transform="matrix(0.05222312,0,0,0.05222312,6.3738145,1.5060942)">
    <g
       class="cls-2"
       clip-path="url(#clip-path-5)"
       id="g31">
      <rect
         class="cls-3"
         x="165.27"
         y="164.83"
         width="409.32999"
         height="410"
         transform="rotate(-52.37,369.96475,369.83608)"
         id="rect29"
         style="fill:url(#linear-gradient-4)" />
    </g>
    <g
       class="cls-4"
       clip-path="url(#clip-path-2-4)"
       id="g39">
      <path
         class="cls-5"
         d="M 732.15,236.54 H 600.84 c -7,-7.25 -5,-14.26 -5.7,-20.62 -4.61,-42.65 -37.91,-70.83 -77.26,-70.52 -46.23,0.38 -92.48,-0.25 -138.72,-0.24 q -74.31,0 -148.63,0.39 c -54.69,0.33 -84.66,30.75 -84.89,86.24 -0.2,50.64 0.09,101.29 -0.19,151.93 -0.06,10.63 2.62,21.92 -4.48,32.64 -16.8,0.37 -30.1,-8.55 -41.57,-17.62 C 53.21,362.19 21.22,316.63 12.4,256.57 2.31,188.14 21.24,129.81 68.13,79.19 95.94,49.19 129.6,30.28 167.78,17.62 A 119,119 0 0 1 196.71,12.2 C 290.56,5 384.59,7 478.58,6.45 c 30.9,-0.2 61.3,3.21 90.78,11.83 78.14,22.83 132.28,70.91 154.5,151.1 5.77,20.85 13.94,41.55 8.29,67.16"
         id="path33"
         style="fill:#2f4757" />
      <path
         class="cls-5"
         d="m 600.28,324.33 c 26.48,8.11 48.93,23.22 68.12,42.84 39,39.88 61.78,88.58 65.06,143.71 2.72,45.77 -11.82,89.19 -38.57,126.75 -46.54,65.35 -111,96.92 -191.24,96.69 -80.24,-0.23 -160.68,-0.05 -241,-0.05 h -33.51 c -8.58,-22.77 -3.52,-44.79 -4.44,-66.24 -0.89,-20.73 -0.19,-41.52 -0.19,-60.52 11.55,-10.49 23.1,-6.72 33.6,-6.76 79.24,-0.34 158.48,0.11 237.72,-0.35 26.51,-0.16 52.34,-3.78 73.6,-22.66 18.61,-16.52 26.16,-37.08 26.08,-61.4 -0.18,-52.82 -0.25,-105.65 0.11,-158.48 0.07,-10.67 -3.17,-22 4.66,-33.53"
         id="path35"
         style="fill:#2f4757" />
      <path
         class="cls-5"
         d="M 139.59,713.75 C 96.35,697.45 64.76,667 40.07,628.69 c -19.32,-30 -27.83,-64 -33,-98.74 -2.88,-19.44 3.44,-26.83 22.64,-27.23 31.82,-0.65 63.66,-0.13 95.49,-0.13 13.47,0 20.3,6.68 20.25,20.16 q -0.33,92.18 -0.89,184.35 c 0,1.68 -2.44,3.35 -5,6.65"
         id="path37"
         style="fill:#2f4757" />
    </g>
  </g>
  <text
     xml:space="preserve"
     style="font-style:normal;font-variant:normal;font-weight:bold;font-stretch:normal;font-size:40.397px;font-family:Arial;-inkscape-font-specification:'Arial, Bold';font-variant-ligatures:normal;font-variant-caps:normal;font-variant-numeric:normal;font-variant-east-asian:normal;fill:#ececec;fill-opacity:1;stroke-width:0.63801"
     x="75.08979"
     y="33.361767"
     id="text1704"><tspan
       sodipodi:role="line"
       id="tspan1702"
       x="75.08979"
       y="33.361767"
       style="font-style:normal;font-variant:normal;font-weight:bold;font-stretch:normal;font-size:40.397px;font-family:Arial;-inkscape-font-specification:'Arial, Bold';font-variant-ligatures:normal;font-variant-caps:normal;font-variant-numeric:normal;font-variant-east-asian:normal;fill:#ececec;fill-opacity:1;stroke-width:0.63801">SP Pay</tspan></text>
</svg>
