<?xml version="1.0" encoding="UTF-8" standalone="no"?>
<svg
   width="120"
   height="74"
   viewBox="0 0 120 74"
   fill="none"
   version="1.1"
   id="svg21"
   sodipodi:docname="default-large.svg"
   inkscape:version="1.2.1 (9c6d41e410, 2022-07-14)"
   xmlns:inkscape="http://www.inkscape.org/namespaces/inkscape"
   xmlns:sodipodi="http://sodipodi.sourceforge.net/DTD/sodipodi-0.dtd"
   xmlns="http://www.w3.org/2000/svg"
   xmlns:svg="http://www.w3.org/2000/svg">
  <sodipodi:namedview
     id="namedview23"
     pagecolor="#ffffff"
     bordercolor="#000000"
     borderopacity="0.25"
     inkscape:showpageshadow="2"
     inkscape:pageopacity="0.0"
     inkscape:pagecheckerboard="0"
     inkscape:deskcolor="#d1d1d1"
     showgrid="false"
     inkscape:zoom="8.7705101"
     inkscape:cx="59.973707"
     inkscape:cy="29.074706"
     inkscape:window-width="1920"
     inkscape:window-height="1017"
     inkscape:window-x="1912"
     inkscape:window-y="-8"
     inkscape:window-maximized="1"
     inkscape:current-layer="svg21" />
  <path
     d="M0.529053 72.6164H4.29015L4.76029 65.7353C4.84577 64.5814 4.76029 63.171 4.76029 63.171H4.80303C4.80303 63.171 5.31591 64.7737 5.65782 65.7353L7.26056 70.1589H10.466L12.0688 65.7353C12.4107 64.7737 12.9236 63.171 12.9236 63.171H12.9663C12.9663 63.171 12.8808 64.5814 12.9663 65.7353L13.4364 72.6164H17.1762L15.9367 57.337H11.8764L9.65397 63.7907C9.31205 64.7737 8.88466 66.3123 8.88466 66.3123H8.84192C8.84192 66.3123 8.41452 64.7737 8.07262 63.7907L5.85015 57.337H1.78988L0.529053 72.6164ZM20.9441 72.6164H30.817V69.411H24.6838V66.526H29.3424V63.3206H24.6838V60.5425H30.5178V57.337H20.9441V72.6164ZM37.076 72.6164H40.8158V60.5425H45.453V57.337H32.4388V60.5425H37.076V72.6164ZM47.9787 72.6164H51.7184V67.4663H53.4707L56.1847 72.6164H60.3518L57.3814 67.274C57.0181 66.6329 56.8044 66.3551 56.8044 66.3551V66.3123C58.3217 65.543 59.091 63.7693 59.091 62.1452C59.091 59.9227 58.0011 58.3627 56.2702 57.7003C55.6077 57.4438 54.8598 57.337 53.2998 57.337H47.9787V72.6164ZM51.7184 64.2608V60.5425H52.9792C54.8598 60.5425 55.2872 61.2263 55.2872 62.3803C55.2872 63.5984 54.5392 64.2608 53.3425 64.2608H51.7184ZM62.0975 64.8806C62.0975 69.3682 65.4739 72.8729 70.0898 72.8729C74.7057 72.8729 78.0822 69.3682 78.0822 64.8806C78.0822 60.4997 74.7057 57.0806 70.0898 57.0806C65.4739 57.0806 62.0975 60.4997 62.0975 64.8806ZM65.9655 64.8806C65.9655 62.3803 67.8033 60.4997 70.0898 60.4997C72.3764 60.4997 74.2142 62.3803 74.2142 64.8806C74.2142 67.4877 72.3764 69.4537 70.0898 69.4537C67.8033 69.4537 65.9655 67.4877 65.9655 64.8806ZM81.2739 72.6164H85.0134V65.5003C85.0134 64.5386 84.8424 62.8932 84.8424 62.8932H84.8852C84.8852 62.8932 85.569 64.4959 86.1674 65.5003L90.42 72.6164H94.1811V57.337H90.4413V64.4745C90.4413 65.4362 90.6123 67.0816 90.6123 67.0816H90.5696C90.5696 67.0816 89.8857 65.4789 89.2874 64.4745L85.0561 57.337H81.2739V72.6164ZM98.4222 72.6164H102.162V57.337H98.4222V72.6164ZM105.341 64.9447C105.341 69.4751 108.568 72.8729 113.355 72.8729C117.351 72.8729 119.509 70.3085 119.509 70.3085L117.586 67.5732C117.586 67.5732 115.834 69.4537 113.526 69.4537C110.705 69.4537 109.209 67.1244 109.209 64.8592C109.209 62.6581 110.598 60.4997 113.526 60.4997C115.641 60.4997 117.351 62.0597 117.351 62.0597L119.082 59.2389C119.082 59.2389 117.137 57.0806 113.355 57.0806C108.76 57.0806 105.341 60.4997 105.341 64.9447Z"
     fill="white"
     id="path2" />
  <defs
     id="defs19">
    <linearGradient
       id="paint0_linear_8583_2595"
       x1="50.303"
       y1="23.0303"
       x2="59.0909"
       y2="25.7576"
       gradientUnits="userSpaceOnUse">
      <stop
         stop-color="#18175A"
         stop-opacity="0.42"
         id="stop14" />
      <stop
         offset="0.911458"
         stop-color="#65719B"
         stop-opacity="0"
         id="stop16" />
    </linearGradient>
    <clipPath
       id="clip-path">
      <path
         class="cls-1"
         d="m 255.22,224.9 c -28,0.1 -30.05,2.16 -30.13,30.06 q -0.36,118.85 0,237.68 c 0,7.4 -2.11,15.62 6.27,22.31 h 278.12 c 7.42,-5.1 6.5,-12.05 6.51,-18.52 0.06,-81.42 0.24,-162.85 -0.08,-244.28 -0.1,-24.72 -2.88,-27.16 -29.61,-27.25 q -57.72,-0.19 -115.44,-0.19 -57.72,0 -115.64,0.19"
         id="path4" />
    </clipPath>
    <linearGradient
       id="linear-gradient"
       y1="740.76001"
       x2="1"
       y2="740.76001"
       gradientTransform="matrix(0,-1431.88,-1431.88,0,1061044.4,1403.09)"
       gradientUnits="userSpaceOnUse">
      <stop
         offset="0"
         stop-color="#fff33b"
         id="stop7" />
      <stop
         offset="0.04"
         stop-color="#fee72e"
         id="stop9" />
      <stop
         offset="0.12"
         stop-color="#fed51b"
         id="stop11" />
      <stop
         offset="0.2"
         stop-color="#fdca10"
         id="stop13" />
      <stop
         offset="0.28"
         stop-color="#fdc70c"
         id="stop15" />
      <stop
         offset="0.67"
         stop-color="#f3903f"
         id="stop17" />
      <stop
         offset="0.89"
         stop-color="#ed683c"
         id="stop19" />
      <stop
         offset="1"
         stop-color="#e93e3a"
         id="stop21" />
    </linearGradient>
    <clipPath
       id="clip-path-2">
      <rect
         class="cls-1"
         width="740.48999"
         height="740.76001"
         id="rect24"
         x="0"
         y="0" />
    </clipPath>
  </defs>
  <g
     id="g1526"
     transform="matrix(0.44999999,0,0,0.44999999,18.197165,6.8054297)">
    <g
       class="cls-2"
       clip-path="url(#clip-path)"
       id="g31"
       transform="matrix(0.13742928,0,0,0.13742928,42.462954,-13.069201)">
      <rect
         class="cls-3"
         x="165.27"
         y="164.83"
         width="409.32999"
         height="410"
         transform="rotate(-52.37,369.96475,369.83608)"
         id="rect29"
         style="fill:url(#linear-gradient)" />
    </g>
    <g
       class="cls-4"
       clip-path="url(#clip-path-2)"
       id="g39"
       transform="matrix(0.13742928,0,0,0.13742928,42.462954,-13.069201)">
      <path
         class="cls-5"
         d="M 732.15,236.54 H 600.84 c -7,-7.25 -5,-14.26 -5.7,-20.62 -4.61,-42.65 -37.91,-70.83 -77.26,-70.52 -46.23,0.38 -92.48,-0.25 -138.72,-0.24 q -74.31,0 -148.63,0.39 c -54.69,0.33 -84.66,30.75 -84.89,86.24 -0.2,50.64 0.09,101.29 -0.19,151.93 -0.06,10.63 2.62,21.92 -4.48,32.64 -16.8,0.37 -30.1,-8.55 -41.57,-17.62 C 53.21,362.19 21.22,316.63 12.4,256.57 2.31,188.14 21.24,129.81 68.13,79.19 95.94,49.19 129.6,30.28 167.78,17.62 A 119,119 0 0 1 196.71,12.2 C 290.56,5 384.59,7 478.58,6.45 c 30.9,-0.2 61.3,3.21 90.78,11.83 78.14,22.83 132.28,70.91 154.5,151.1 5.77,20.85 13.94,41.55 8.29,67.16"
         id="path33"
         style="fill:#2f4757" />
      <path
         class="cls-5"
         d="m 600.28,324.33 c 26.48,8.11 48.93,23.22 68.12,42.84 39,39.88 61.78,88.58 65.06,143.71 2.72,45.77 -11.82,89.19 -38.57,126.75 -46.54,65.35 -111,96.92 -191.24,96.69 -80.24,-0.23 -160.68,-0.05 -241,-0.05 h -33.51 c -8.58,-22.77 -3.52,-44.79 -4.44,-66.24 -0.89,-20.73 -0.19,-41.52 -0.19,-60.52 11.55,-10.49 23.1,-6.72 33.6,-6.76 79.24,-0.34 158.48,0.11 237.72,-0.35 26.51,-0.16 52.34,-3.78 73.6,-22.66 18.61,-16.52 26.16,-37.08 26.08,-61.4 -0.18,-52.82 -0.25,-105.65 0.11,-158.48 0.07,-10.67 -3.17,-22 4.66,-33.53"
         id="path35"
         style="fill:#2f4757" />
      <path
         class="cls-5"
         d="M 139.59,713.75 C 96.35,697.45 64.76,667 40.07,628.69 c -19.32,-30 -27.83,-64 -33,-98.74 -2.88,-19.44 3.44,-26.83 22.64,-27.23 31.82,-0.65 63.66,-0.13 95.49,-0.13 13.47,0 20.3,6.68 20.25,20.16 q -0.33,92.18 -0.89,184.35 c 0,1.68 -2.44,3.35 -5,6.65"
         id="path37"
         style="fill:#2f4757" />
    </g>
  </g>
</svg>
