<?xml version="1.0" encoding="UTF-8" standalone="no"?>
<svg
   width="164"
   height="26"
   viewBox="0 0 164 26"
   fill="none"
   version="1.1"
   id="svg8"
   sodipodi:docname="landing-dark.svg"
   inkscape:version="1.2.1 (9c6d41e410, 2022-07-14)"
   xmlns:inkscape="http://www.inkscape.org/namespaces/inkscape"
   xmlns:sodipodi="http://sodipodi.sourceforge.net/DTD/sodipodi-0.dtd"
   xmlns="http://www.w3.org/2000/svg"
   xmlns:svg="http://www.w3.org/2000/svg">
  <defs
     id="defs12" />
  <sodipodi:namedview
     id="namedview10"
     pagecolor="#ffffff"
     bordercolor="#000000"
     borderopacity="0.25"
     inkscape:showpageshadow="2"
     inkscape:pageopacity="0.0"
     inkscape:pagecheckerboard="0"
     inkscape:deskcolor="#d1d1d1"
     showgrid="false"
     inkscape:zoom="7.3780488"
     inkscape:cx="82"
     inkscape:cy="13.01157"
     inkscape:window-width="1920"
     inkscape:window-height="1017"
     inkscape:window-x="1912"
     inkscape:window-y="-8"
     inkscape:window-maximized="1"
     inkscape:current-layer="svg8" />
  <path
     d="m 23.858208,1.4888822 c 0.1232,-0.13922 0.1915,-0.320579 0.1918,-0.50877102 0,-0.202335 -0.0777,-0.39648 -0.2163,-0.540158 -0.1386,-0.143678 -0.3268,-0.225253 -0.5236,-0.226961 h -0.009 l -12.3571,0.0065 h -0.009 c -0.1753,-3e-5 -0.34883,0.03722 -0.50954,0.109424 -0.16071,0.0722 -0.30515,0.177782 -0.42426,0.310117 C 9.1856676,1.4853062 7.0967576,3.6218762 3.3277676,7.2883562 c -5.04025,4.9027608 -1.46237,9.7429608 -1.46237,9.7429608 l 4.60973,4.7387 c -1.08155,-1.1881 0.24571,-2.7547 0.24571,-2.7547 L 23.810808,1.5443162 c 0.0126,-0.01223 0.0252,-0.02518 0.0371,-0.03814 l 0.0119,-0.01295 z"
     fill="#00a3ff"
     id="path3961" />
  <path
     d="m 24.435608,24.932793 -0.004,-0.0044 -10.0763,-10.3453 c -0.0713,-0.0722 -0.1558,-0.1293 -0.2487,-0.1678 -0.0928,-0.0386 -0.1922,-0.0579 -0.2923,-0.0568 -0.1001,0.0011 -0.1991,0.0225 -0.2911,0.063 -0.0921,0.0405 -0.1754,0.0994 -0.2453,0.1731 v 0 l -5.3286204,5.449 c -1.35176,1.6681 -0.54042,2.5273 -0.54042,2.5273 l 3.1389504,3.3427 c 0.0802,0.0934 0.17889,0.1681 0.28949,0.2192 0.1106,0.051 0.2305,0.0771 0.3517,0.0766 h 12.6728 c 0.008,0 0.0161,0 0.0252,0 0.1434,-9e-4 0.2836,-0.0444 0.4036,-0.1252 0.12,-0.0809 0.2147,-0.1957 0.2727,-0.3306 0.058,-0.1349 0.0768,-0.2841 0.0542,-0.4298 -0.0226,-0.1456 -0.0857,-0.2814 -0.1817,-0.391 z"
     fill="#3f4254"
     id="path3963" />
  <text
     xml:space="preserve"
     style="font-style:normal;font-variant:normal;font-weight:bold;font-stretch:normal;font-size:27.399px;font-family:Arial;-inkscape-font-specification:'Arial, Bold';font-variant-ligatures:normal;font-variant-caps:normal;font-variant-numeric:normal;font-variant-east-asian:normal;fill:#ff6600;fill-opacity:1;stroke-width:0.432726"
     x="38.589855"
     y="20.586201"
     id="text1704-9"><tspan
       sodipodi:role="line"
       id="tspan1702-6"
       x="38.589855"
       y="20.586201"
       style="font-style:normal;font-variant:normal;font-weight:bold;font-stretch:normal;font-size:27.399px;font-family:Arial;-inkscape-font-specification:'Arial, Bold';font-variant-ligatures:normal;font-variant-caps:normal;font-variant-numeric:normal;font-variant-east-asian:normal;fill:#ff6600;fill-opacity:1;stroke-width:0.432726">SP Pay</tspan></text>
</svg>
