<?xml version="1.0" encoding="UTF-8" standalone="no"?>
<svg
   width="164"
   height="26"
   viewBox="0 0 164 26"
   fill="none"
   version="1.1"
   id="svg8"
   sodipodi:docname="landing.svg"
   inkscape:version="1.2.1 (9c6d41e410, 2022-07-14)"
   xmlns:inkscape="http://www.inkscape.org/namespaces/inkscape"
   xmlns:sodipodi="http://sodipodi.sourceforge.net/DTD/sodipodi-0.dtd"
   xmlns="http://www.w3.org/2000/svg"
   xmlns:svg="http://www.w3.org/2000/svg">
  <defs
     id="defs12" />
  <sodipodi:namedview
     id="namedview10"
     pagecolor="#ffffff"
     bordercolor="#000000"
     borderopacity="0.25"
     inkscape:showpageshadow="2"
     inkscape:pageopacity="0.0"
     inkscape:pagecheckerboard="0"
     inkscape:deskcolor="#d1d1d1"
     showgrid="false"
     inkscape:zoom="7.3780488"
     inkscape:cx="82"
     inkscape:cy="13.01157"
     inkscape:window-width="1920"
     inkscape:window-height="1017"
     inkscape:window-x="1912"
     inkscape:window-y="-8"
     inkscape:window-maximized="1"
     inkscape:current-layer="svg8" />
  <path
     d="m 23.803957,24.667994 -0.004,-0.0044 -10.0763,-10.3453 c -0.0714,-0.0722 -0.1559,-0.1293 -0.2487,-0.1678 -0.0929,-0.0385 -0.1922,-0.0578 -0.2923,-0.0568 -0.1002,0.0011 -0.1991,0.0225 -0.2912,0.063 -0.092,0.0406 -0.1753,0.0994 -0.2452,0.1731 l -5.3286605,5.449 c -1.35177,1.6681 -0.54043,2.5274 -0.54043,2.5274 l 3.13896,3.3426 c 0.0802,0.0934 0.1789305,0.1681 0.2895305,0.2192 0.1106,0.051 0.2305,0.0771 0.3517,0.0766 h 12.6727 c 0.008,0 0.0161,0 0.0252,0 0.1435,-9e-4 0.2837,-0.0444 0.4037,-0.1252 0.1199,-0.0809 0.2146,-0.1957 0.2726,-0.3306 0.058,-0.1349 0.0768,-0.2841 0.0542,-0.4298 -0.0226,-0.1456 -0.0857,-0.2814 -0.1816,-0.391 z"
     fill="#ffffff"
     id="path1985" />
  <path
     d="m 23.269637,1.3544299 c 0.1232,-0.13922 0.1915,-0.320579 0.1918,-0.50877097 0,-0.202335 -0.0777,-0.39648 -0.2163,-0.540158 -0.1386,-0.143678 -0.3268,-0.225253 -0.5236,-0.226961 h -0.009 l -12.3571,0.0065 h -0.009 c -0.1753,-3.1e-5 -0.3488305,0.03722 -0.5095405,0.109423 -0.16071,0.0722 -0.30515,0.177782 -0.42426,0.310117 -0.81554,0.84627297 -2.90445,2.98284297 -6.67344,6.64932297 -5.040255,4.9027611 -1.46237,9.7429611 -1.46237,9.7429611 l 4.60973,4.7387 c -1.08155,-1.1881 0.24571,-2.7547 0.24571,-2.7547 L 23.222237,1.4098599 c 0.0126,-0.01223 0.0252,-0.02518 0.0371,-0.03814 l 0.0119,-0.01295 z"
     fill="#00A3FF"
     id="path1983"
     style="fill:#00222b" />
  <text
     xml:space="preserve"
     style="font-style:normal;font-variant:normal;font-weight:bold;font-stretch:normal;font-size:27.399px;font-family:Arial;-inkscape-font-specification:'Arial, Bold';font-variant-ligatures:normal;font-variant-caps:normal;font-variant-numeric:normal;font-variant-east-asian:normal;fill:#ff6600;fill-opacity:1;stroke-width:0.432726"
     x="35.654285"
     y="20.050323"
     id="text1704-9"><tspan
       sodipodi:role="line"
       id="tspan1702-6"
       x="35.654285"
       y="20.050323"
       style="font-style:normal;font-variant:normal;font-weight:bold;font-stretch:normal;font-size:27.399px;font-family:Arial;-inkscape-font-specification:'Arial, Bold';font-variant-ligatures:normal;font-variant-caps:normal;font-variant-numeric:normal;font-variant-east-asian:normal;fill:#ff6600;fill-opacity:1;stroke-width:0.432726">SP Pay</tspan></text>
</svg>
